<?xml version="1.0" encoding="utf-8"?>
<svg version="1.1" xmlns:xlink="http://www.w3.org/1999/xlink" width="22px" height="22px" xmlns="http://www.w3.org/2000/svg">
  <g transform="matrix(1 0 0 1 -957 -1153 )">
    <path d="M 21.2534033274336 21.7272467013274  L 0.870162641592913 21.7272467013274  C 0.494394196902647 21.7272467013274  0.19072128539824 21.423573789823  0.19072128539824 21.0478053451328  C 0.19072128539824 20.6720369004425  0.494394196902647 20.3683639889381  0.870162641592913 20  L 21.2533784314159 20  C 21.6291468761062 20.3683639889381  21.9328197876106 20.6720369004425  21.9328197876106 21.0478053451328  C 21.9328446836283 21.423573789823  21.6291717721239 21.7272467013274  21.2534033274336 21.7272467013274  Z M 21.5019648517699 2.50530458628316  L 19.4337815265487 0.437121261061975  C 19.1450258075221 0.150830977876126  18.7692573384955 0.00624142920355553  18.3909985619469 0.00624142920355553  C 18.0131631150442 0.00624142920355553  17.637394670354 0.150830977876126  17.3507059292035 0.437121261061975  L 7.15288460398227 10.6353659402655  L 4.33951477212389 16.618548971239  C 4.09757755973453 17.1368399867256  4.50106357079648 17.6716917942478  5.0019719579646 17.6716917942478  C 5.10586922123895 17.6716917942478  5.21190819911504 17.6484817699115  5.32046242920353 17.5995962610619  L 11.3037450929203 14.7881688783186  L 21.5015663938053 4.59044718584073  C 22.0770357743363 4.01293572345133  22.0770357743363 3.08077396681415  21.5019648517699 2.50530458628316  Z M 10.5095236283186 13.6589210464602  L 6.30315331858407 15.6354347035398  L 8.28018993805307 11.4295873561947  L 15.6670072345133 4.04277005973449  L 17.8963409247788 6.27200411725664  L 10.5095236283186 13.6589210464602  Z M 20.5399936305309 3.62845106858407  L 18.856294960177 5.31205013053096  L 16.6269612699115 3.08281607300887  L 18.3106599402655 1.39911740265489  C 18.3189279004425 1.39042608849559  18.3446282809734 1.36514906194691  18.3914467876106 1.36514906194691  C 18.4382403982301 1.36514906194691  18.4635174247788 1.39042608849559  18.4722336349557 1.39911740265489  L 20.5403920641593 3.46730072787614  C 20.5486600243363 3.4755686880531  20.5743604048673 3.50126906858407  20.5743604048673 3.54808757522125  C 20.5743853252212 3.59488118584073  20.548261590708 3.6201831084071  20.5399936305309 3.62845106858407  Z " fill-rule="nonzero" fill="#333333" stroke="none" transform="matrix(1 0 0 1 957 1153 )" />
  </g>
</svg>